<?xml version="1.0" encoding="UTF-8" standalone="no"?>
<!-- Created with Inkscape (http://www.inkscape.org/) -->

<svg
   xmlns:dc="http://purl.org/dc/elements/1.1/"
   xmlns:cc="http://creativecommons.org/ns#"
   xmlns:rdf="http://www.w3.org/1999/02/22-rdf-syntax-ns#"
   xmlns:svg="http://www.w3.org/2000/svg"
   xmlns="http://www.w3.org/2000/svg"
   xmlns:sodipodi="http://sodipodi.sourceforge.net/DTD/sodipodi-0.dtd"
   xmlns:inkscape="http://www.inkscape.org/namespaces/inkscape"
   id="svg4225"
   version="1.1"
   inkscape:version="0.92.2 5c3e80d, 2017-08-06"
   xml:space="preserve"
   width="210mm"
   height="297mm"
   viewBox="0 0 744.09448 1052.3622"
   sodipodi:docname="crab.svg"
   inkscape:export-filename="/Users/mendler/Downloads/rustme.png"
   inkscape:export-xdpi="249.98048"
   inkscape:export-ydpi="249.98048"><metadata
     id="metadata4231"><rdf:RDF><cc:Work
         rdf:about=""><dc:format>image/svg+xml</dc:format><dc:type
           rdf:resource="http://purl.org/dc/dcmitype/StillImage" /><dc:title></dc:title></cc:Work></rdf:RDF></metadata><defs
     id="defs4229"><clipPath
       clipPathUnits="userSpaceOnUse"
       id="clipPath4241"><path
         d="M 0.06,0 H 3968.5 V 3968.5 H 0.06 Z"
         id="path4243"
         inkscape:connector-curvature="0" /></clipPath></defs><sodipodi:namedview
     pagecolor="#ffff00"
     bordercolor="#666666"
     borderopacity="1"
     objecttolerance="10"
     gridtolerance="10"
     guidetolerance="10"
     inkscape:pageopacity="1"
     inkscape:pageshadow="2"
     inkscape:window-width="1440"
     inkscape:window-height="856"
     id="namedview4227"
     showgrid="false"
     inkscape:zoom="0.31211105"
     inkscape:cx="-26.243019"
     inkscape:cy="235.70294"
     inkscape:window-x="0"
     inkscape:window-y="0"
     inkscape:window-maximized="0"
     inkscape:current-layer="g4233"
     fit-margin-top="0"
     fit-margin-left="0"
     fit-margin-right="0"
     fit-margin-bottom="0"
     units="mm" /><g
     id="g4233"
     inkscape:groupmode="layer"
     inkscape:label="crab"
     transform="matrix(1.25,0,0,-1.25,-999.45139,6743.4615)"><g
       id="g4235" /><path
       d="m 1225.8178,4936.0743 c 0.1225,-2.1465 0.444,-4.2814 0.7376,-6.8342 5.7487,0.6082 11.1791,2.0384 15.7877,5.7874 0.869,0.7064 1.6954,1.4671 2.5778,2.1543 2.7183,2.1137 2.8027,2.3942 1.4825,5.5663 -1.6417,3.9461 -2.5395,4.4699 -6.4464,2.5907 -4.5716,-2.1984 -8.9798,-4.7437 -13.3913,-7.2558 -0.4879,-0.2777 -0.7862,-1.3364 -0.7479,-2.0087 z m -17.6327,-12.6913 c 0.563,0.1138 1.3108,0.2983 1.7162,0.042 3.1475,-1.9911 6.3781,-0.6109 9.4703,-0.07 1.0471,0.1833 2.4238,1.9926 2.5624,3.186 0.3691,3.1514 0.3096,6.3847 0.081,9.5614 -0.1226,1.7044 -1.4375,1.9326 -3.0325,1.3346 -6.5817,-2.4671 -13.3319,-4.2579 -20.3831,-4.727 -0.3694,-0.024 -0.7343,-0.1155 -1.1031,-0.1523 -1.3023,-0.126 -3.531,0.1138 -3.739,-0.4266 -0.6383,-1.6638 -0.9518,-3.7415 -0.5077,-5.426 0.2737,-1.0364 2.0857,-1.7984 3.3435,-2.4051 1.1222,-0.5417 2.4249,-0.7215 3.658,-1.023 0.87,-0.2125 1.7552,-0.3611 2.634,-0.5385 0.036,-0.1733 0.077,-0.3467 0.1173,-0.5202 1.7265,0.3929 3.4485,0.8112 5.1834,1.1645 z m 13.2927,33.5531 c -0.7128,1.5486 -1.572,3.0288 -2.5261,4.8442 -4.3672,-1.7409 -8.4709,-3.5057 -12.6691,-5.0056 -2.8616,-1.0225 -5.882,-1.5957 -8.7703,-2.5507 -0.6856,-0.2259 -1.4648,-1.1074 -1.614,-1.8113 -0.3036,-1.4324 -0.2194,-2.9494 -0.267,-4.4326 -0.046,-1.3865 0.711,-1.912 1.997,-1.661 6.937,1.3551 13.893,2.6327 20.7966,4.1482 3.5214,0.7725 4.5517,3.2105 3.0529,6.4688 z m -33.6891,-97.3401 c -0.3304,-1.1284 -0.5933,-2.2764 -0.8813,-3.4169 0.8836,0.5428 1.844,0.99 2.6352,1.6445 5.8774,4.8599 9.088,11.533 12.0557,18.291 0.9674,2.2088 1.1457,4.7719 1.6161,7.1868 0.2959,1.5191 -0.591,1.8934 -1.8301,1.494 -1.4812,-0.4773 -2.9113,-1.1166 -3.8822,-1.4959 -1.0191,-3.5662 -1.8057,-6.7155 -2.83,-9.7845 -0.9415,-2.8256 -2.0229,-5.6192 -3.2702,-8.3226 -0.8013,-1.7362 -2.0084,-3.2878 -3.0472,-4.9137 -0.1593,-0.2484 -0.4906,-0.4221 -0.566,-0.6827 z m -4.0998,44.4592 c -0.239,-2.6791 0.7315,-4.3514 3.2494,-5.4617 2.5219,-1.1128 4.6375,-2.7866 5.7788,-5.6089 0.8817,-2.1803 2.3547,-4.1317 3.6728,-6.1132 0.2927,-0.44 1.1013,-0.8854 1.5739,-0.7983 3.7293,0.6959 6.195,4.9171 4.5241,8.1531 -1.79,3.4719 -4.0426,6.7027 -6.071,10.0522 -0.5609,0.9264 -1.1403,1.8618 -1.5358,2.861 -1.1081,2.8015 -2.9044,4.9386 -5.5632,6.4121 -1.706,-3.5481 -0.2732,-8.4745 -5.629,-9.4963 z m -14.7968,28.0192 c -1.9456,-1.5446 -3.5441,-3.5269 -5.6974,-5.7364 3.1864,-0.4565 6.1146,-0.8652 9.0371,-1.2975 2.7239,-0.4028 5.4328,-0.8954 8.1629,-1.2276 2.4731,-0.3011 4.9645,-0.5456 7.4516,-0.5671 0.554,0 1.515,0.965 1.6106,1.5912 0.4675,2.9988 0.7092,6.0327 1.0136,9.0561 0.2348,2.3273 -0.2424,2.9102 -2.5704,2.667 -2.2936,-0.2402 -4.5528,-0.8033 -6.8456,-1.0816 -2.2766,-0.277 -4.6514,-0.076 -6.839,-0.6439 -1.8955,-0.4928 -3.777,-1.5322 -5.3234,-2.7602 z m 8.6245,-12.5988 c -5.3218,-0.6867 -10.6143,-1.6024 -15.9219,-2.4004 -4.5373,-0.6824 -8.9876,-2.3983 -13.7081,-1.075 -0.5718,0.1611 -1.5263,-0.2176 -1.9967,-0.6667 -2.1457,-2.0582 -4.2271,-4.1861 -6.1958,-6.4105 -0.2539,-0.2852 0.087,-1.5661 0.5195,-1.8731 0.6038,-0.4302 1.5493,-0.3806 2.3512,-0.5357 5.6634,-1.5587 11.2554,-0.9085 16.8362,0.4628 3.7538,0.9234 7.546,1.6225 11.3695,0.5202 1.5654,-0.4513 3.0199,-1.2686 4.5455,-1.871 0.8238,-0.325 1.6703,-0.6874 2.5353,-0.7931 4.3106,-0.523 6.5815,1.4268 6.5481,5.755 -0.017,1.9961 -0.3089,4.004 -0.6431,5.9783 -0.2808,1.6734 -3.4755,3.2663 -6.2397,2.9092 z m 2.751,33.3959 c -0.5025,-2.3569 -1.4469,-5.232 -1.5432,-8.1356 -0.033,-0.9598 1.9935,-2.5983 3.2994,-2.8686 2.8127,-0.5824 5.771,-0.6395 8.667,-0.6122 2.894,0.028 3.8404,1.4848 3.5592,4.3353 -0.1717,1.7589 0.038,3.5554 0.073,5.3349 0.02,0.9429 0.026,1.8856 0.04,2.8031 -4.6874,-0.2848 -9.156,-0.5565 -14.0947,-0.8569 z m -11.5869,-87.9201 c 2.7285,-0.2581 5.481,-0.3347 8.224,-0.3095 1.2495,0.017 1.9996,2.9032 1.1007,3.9524 -0.315,0.3688 -0.6622,0.7098 -0.7119,0.7551 v 0 c 0,0.017 0,0.017 0,0 0.6858,1.168 1.3337,1.7625 1.3465,2.3716 0.1645,7.6057 -1.3414,14.9522 -3.6119,22.171 -0.1797,0.5685 -0.3196,1.1491 -0.5099,1.715 -0.161,0.4772 -0.368,0.9391 -0.4467,1.1333 -2.249,-1.8807 -4.4774,-3.7442 -6.8793,-5.7517 1.7501,-4.6481 2.4336,-9.867 1.8786,-15.1456 -0.2842,-2.7147 -1.1996,-5.3873 -2.0416,-8.0101 -0.5632,-1.7583 0.04,-2.729 1.6515,-2.8815 z m -26.6472,-22.8837 c 0.2065,-0.1844 0.4134,-0.3688 0.6182,-0.5529 11.9363,4.0566 22.9872,9.5926 31.8177,19.3276 -2.8573,0.5378 -5.5927,1.1124 -8.3535,1.5241 -0.5255,0.079 -1.2784,-0.3516 -1.7027,-0.7731 -1.7979,-1.7906 -3.5664,-3.6154 -5.2439,-5.5176 -4.305,-4.8843 -9.6968,-8.3187 -15.1822,-11.6632 -0.8233,-0.501 -1.3112,-1.5488 -1.9536,-2.3449 z m -6.8642,60.8027 c -1.257,-1.5363 -2.4046,-3.1646 -3.7955,-5.0316 5.8678,-2.0403 11.5002,-2.7081 17.2373,-2.9249 4.2476,-0.1628 8.4874,-0.5744 12.7271,-0.9043 1.6357,-0.1278 3.2603,-0.3906 4.8949,-0.4981 1.8913,-0.126 3.4289,0.6466 4.1793,2.392 0.7314,1.6962 1.3029,3.4835 1.7196,5.2848 0.3894,1.6807 -0.7074,2.8909 -2.1782,3.0474 -3.067,0.3227 -6.2323,0.6894 -9.2537,0.2782 -8.0139,-1.0872 -15.9911,-2.0993 -24.0879,-1.0562 -0.46,0.058 -1.1498,-0.2254 -1.4429,-0.5873 z m -95.7322,-43.7578 c -2.3739,-0.5966 -4.7201,-1.2997 -7.3564,-2.0495 2.7607,-3.999 6.482,-5.7017 10.0046,-7.5246 5.5425,-2.8678 11.2441,-5.4311 16.9038,-8.0686 0.7181,-0.3338 1.6291,-0.5669 2.3743,-0.4303 0.5926,0.1103 1.1424,0.805 1.5301,1.3664 0.079,0.1174 -0.5481,0.9569 -0.9922,1.1673 -4.0894,1.9563 -8.2007,3.8696 -12.3267,5.7508 -2.3342,1.0659 -4.3215,2.3473 -5.4791,4.8666 -0.7588,1.65 -2.1533,3.0216 -3.3448,4.4505 -0.2643,0.317 -0.9285,0.5689 -1.3136,0.4714 z m 31.1465,38.3783 c 0.9304,0.349 1.8822,0.6369 3.0032,1.013 -1.5762,1.6385 -3.0808,3.2709 -4.6797,4.8083 -0.3515,0.3376 -1.0461,0.5116 -1.5551,0.4658 -9.369,-0.8649 -18.7237,-1.3741 -28.1277,-0.2223 -2.1186,0.2612 -4.419,-0.364 -6.5447,-0.9277 -1.9422,-0.5139 -2.6887,-2.0207 -1.9068,-4.006 0.6817,-1.7275 1.033,-3.88 2.2846,-5.006 1.1568,-1.0418 3.3317,-1.3834 5.0272,-1.3108 4.1458,0.18 8.2643,0.9387 12.4102,1.1671 6.9042,0.3799 13.6079,1.5944 20.0888,4.0186 z m -43.3337,-8.8995 c -0.9664,-5.0591 -2.3104,-10.1163 -2.5505,-15.2189 -0.1733,-3.6773 1.1602,-7.4336 1.9075,-11.1362 0.065,-0.327 0.7808,-0.7691 1.1688,-0.7442 2.7427,0.1698 5.503,0.2973 8.2093,0.7377 2.0441,0.3322 2.6374,2.0823 1.6287,3.9672 -1.2519,2.3418 -2.5233,4.6725 -3.7297,7.0358 -0.2224,0.436 -0.4204,1.1557 -0.2171,1.4963 2.2738,3.8246 1.7327,8.1368 2.3423,12.2601 0.3793,2.5643 -0.5826,3.4357 -2.7958,4.2854 -1.6202,0.6219 -2.8651,2.2209 -4.399,3.4838 -0.5186,-2.0139 -1.1637,-4.0681 -1.5645,-6.167 z m -6.8235,14.891 c 3.0782,-0.3202 5.8734,-0.5859 8.4547,1.3555 2.7167,2.0469 5.8504,2.169 9.1623,1.793 3.6745,-0.4156 7.3979,-0.38 11.0957,-0.6081 4.9591,-0.3065 9.6505,1.2587 14.5714,2.1074 -4.2159,3.6105 -7.9775,7.4112 -14.2583,7.1851 -4.7959,-0.1733 -9.6354,1.0142 -14.4627,1.5307 -3.5626,0.3796 -7.1335,0.8227 -10.7073,0.8924 -1.6213,0.032 -3.3144,-0.6328 -4.8724,-1.2417 -1.4614,-0.5725 -2.1109,-1.8019 -1.6036,-3.6692 0.5514,0.6928 1.0207,1.2847 1.9287,2.4288 0.2561,-4.3657 0.4713,-8.0263 0.6915,-11.7739 z m -12.3035,76.7149 c -0.7142,0.3402 -1.2938,0.9636 -2.4693,1.9195 1.402,0.2996 2.1877,0.6969 2.8117,0.5208 0.4172,-0.1173 0.7643,-1.0347 0.8206,-1.6246 0.024,-0.2529 -0.9331,-0.925 -1.163,-0.8157 z m 7.796,-9.6527 c 0.6289,1.5891 1.1869,3.2276 1.5404,4.8944 0.1575,0.7417 0,2.0639 -0.4654,2.3423 -4.2447,2.5075 -6.1192,6.6977 -7.7287,10.9452 -1.3962,3.6846 -2.3001,7.5614 -3.3264,11.3786 -0.4881,1.8161 -0.4199,3.4626 -3.3143,3.5813 -3.11982,0.1277 -6.16075,1.6159 -9.28717,2.263 -6.93466,1.4352 -13.65512,1.22 -18.84108,-4.4076 -1.57415,-1.7085 -2.85668,-4.1521 -3.22236,-6.4278 -1.69874,-10.5673 0.64016,-20.112 8.65906,-27.6215 1.70607,-1.5972 4.24978,-2.4764 6.55772,-3.221 6.71311,-2.1655 13.73513,-1.6323 20.65033,-2.0711 3.0884,-0.196 6.148,-0.8389 9.4123,-1.3063 0.668,1.9008 1.3559,3.8574 2.1092,6.0011 -0.3716,0.1523 -0.8121,0.336 -1.2535,0.5163 -1.4497,0.5907 -2.1507,1.4643 -1.4901,3.1331 z m 4.0902,-20.0564 c -4.5611,2.8543 -10.0094,0.4802 -15.3652,2.0967 0.061,-1.3109 0.094,-2.0974 0.1383,-2.883 0.1243,-2.227 0.3444,-4.4533 0.3563,-6.6805 0.017,-2.7237 1.3619,-4.3144 3.9675,-3.8023 3.7319,0.7332 7.4024,1.8135 11.0464,2.9204 0.4617,0.14 0.8958,1.3589 0.8385,2.0351 -0.1681,1.9789 -0.5907,3.9358 -0.9813,6.3136 z m 5.3675,-16.8019 c -4.1567,0.4206 -8.3179,0.8195 -12.4862,1.095 -3.1678,0.2085 -3.5709,-0.3267 -2.9779,-3.4447 0.5961,-3.1321 1.2197,-6.2583 1.8457,-9.4631 8.5581,-3.5511 15.7985,1.9458 23.7838,3.3547 -0.089,2.2315 -1.6027,3.3428 -2.9403,3.466 -2.9091,0.2639 -4.042,2.5486 -5.8243,4.1283 -0.4098,0.3622 -0.9071,0.8153 -1.4008,0.8638 z m -18.4912,-29.764 c -0.5704,-2.9934 -2.3021,-5.2052 -3.9113,-7.6217 -1.5793,-2.3705 -2.8822,-5.0056 -3.79644,-7.6985 -0.32101,-0.9448 0.77324,-2.4581 1.41204,-3.6069 0.2958,-0.5306 1.0427,-0.8165 1.5959,-1.1993 3.0249,-2.0852 4.4449,-1.7499 6.3638,1.4924 0.1137,0.1928 0.2631,0.3783 0.3186,0.5895 1.2929,4.9016 3.8227,8.8322 8.4951,11.2038 0.6546,0.3324 1.1228,1.1999 1.4808,1.9164 0.9675,1.9396 0.6072,2.7028 -1.5291,3.0489 -1.7613,0.2843 -2.7961,1.0757 -3.199,2.8919 -0.447,2.0197 -1.1501,3.9793 -1.8056,6.1814 -2.8832,-1.6309 -4.8178,-4.0128 -5.4248,-7.1979 z m -10.15885,-18.8239 c -0.46459,0.3077 -1.02175,0.4759 -1.85021,0.8518 4.32962,-12.896 12.58526,-22.9838 19.96896,-33.6561 1.8927,0.8223 2.6754,1.7131 1.5605,3.9027 -2.5953,5.0947 -4.8918,10.3416 -7.2951,15.5334 -0.2488,0.5381 -0.5252,1.1103 -0.5764,1.6864 -0.2961,3.3223 -2.0323,5.5064 -4.9346,7.1 -2.4047,1.319 -4.57715,3.0591 -6.87315,4.5818 z m -19.50376,45.5095 c -0.0191,-2.5256 0.26522,-5.0524 0.4321,-7.5764 0.11923,-1.8038 1.08573,-2.8487 2.87168,-3.1768 1.83489,-0.3372 3.66219,-0.7175 6.27616,-1.2326 4.81327,-1.8087 9.78335,0.7134 14.85677,2.3823 1.4031,0.4624 2.6719,1.3679 4.0886,1.7459 1.7693,0.4722 1.8868,1.5367 1.7044,3.0359 -0.5322,4.3571 -0.5019,4.2643 -4.9362,4.3307 -7.28076,0.1103 -14.41003,1.2838 -21.39548,3.3595 -3.51948,1.0447 -3.8707,0.8238 -3.89803,-2.8685 z m 0.36644,18.2255 c 5.59509,-1.8302 11.22294,-3.4789 17.21189,-3.4092 2.51646,0.03 5.03628,-0.2307 8.14388,-0.3891 -0.3381,2.3519 -0.6111,4.4997 -0.9968,6.627 -0.05,0.2785 -0.6518,0.5432 -1.0439,0.6609 -6.77763,2.0323 -13.56199,4.0429 -20.34755,6.049 -0.4934,0.1453 -1.0074,0.2227 -1.95705,0.4274 -0.88438,-2.4703 -1.67316,-4.7784 -2.53897,-7.0573 -0.60839,-1.6013 0.18129,-2.4683 1.5285,-2.9087 z m -26.45035,-13.915 c 0.0739,-0.7301 0.63159,-1.5274 1.1827,-2.0748 4.94653,-4.9127 11.23959,-6.9114 17.89002,-8.0327 0.89605,-0.1523 1.88136,0.2229 2.81676,0.3523 0.118,2.612 0.31972,4.8441 0.25979,7.0695 -0.0186,0.694 -0.57755,1.6986 -1.17303,1.9988 -4.32718,2.1874 -8.72707,4.2305 -13.10353,6.3207 -0.0674,0.032 -0.12869,0.078 -0.19716,0.1068 -4.64839,1.968 -8.19152,-0.6439 -7.67555,-5.7405 z m -28.65826,18.8319 c 7.26468,-8.0139 17.38452,-11.0531 25.05133,-18.44 1.25666,2.8469 2.34312,5.308 3.31882,7.5181 -3.03009,1.304 -5.65979,2.2957 -8.16077,3.5448 -3.93477,1.9662 -7.74842,4.1747 -11.68346,6.1405 -1.71939,0.8588 -3.57497,1.5258 -5.44254,1.9689 -0.80955,0.1924 -1.80551,-0.4007 -3.08338,-0.7323 z m 23.74566,23.0022 c 0.33191,0.4864 0.65017,0.9825 1.09404,1.6554 -6.63127,5.8229 -12.29405,12.4454 -16.50015,20.2775 -0.2995,-0.2206 -0.5992,-0.441 -0.89871,-0.6616 3.83483,-8.3167 7.87178,-16.5021 15.32117,-22.6636 0.33028,0.4664 0.66419,0.9243 0.98365,1.3923 z m 19.2898,-12.0268 c -4.06364,2.8414 -7.79057,6.165 -11.65623,9.2886 -1.07649,0.8698 -2.13728,1.7595 -3.04934,2.5115 -0.42156,-0.1365 -0.51624,-0.1383 -0.56048,-0.1863 -4.18582,-4.5509 -4.38896,-5.7139 0.76052,-9.9956 5.85295,-4.8668 11.6906,-9.752 17.55835,-14.6009 0.68271,-0.5643 1.47789,-1.0283 2.28519,-1.3989 1.56656,-0.7193 2.71935,-0.026 3.06888,1.7002 0.42699,2.1086 0.97108,4.197 1.29443,6.3201 0.079,0.5192 -0.35262,1.4179 -0.80915,1.6684 -2.94078,1.6136 -6.16833,2.7882 -8.89217,4.6929 z m 27.23968,94.5968 c -1.05415,-0.1575 -2.10819,-0.3136 -3.16215,-0.4709 -0.083,0.2908 -0.16596,0.5815 -0.24887,0.8724 0.91412,1.4992 2.13028,0.7641 3.30236,0.3555 0.0362,-0.252 0.0725,-0.5045 0.10873,-0.757 z m -4.47937,-6.6961 c 0.17786,0.2092 0.35573,0.4182 0.53365,0.6276 0.68803,-0.3333 1.69936,-0.4977 1.98396,-1.042 0.37341,-0.7143 0.17385,-1.728 0.22068,-2.6128 -0.2944,-0.064 -0.58885,-0.1261 -0.8833,-0.1895 -0.61821,1.0722 -1.23658,2.1445 -1.85499,3.2167 z m -1.49118,-7.9591 c -0.96519,0.093 -1.64854,0.1594 -2.33208,0.2254 0.40065,1.376 0.80128,2.7517 1.20169,4.1273 0.27258,-0.03 0.54536,-0.062 0.81795,-0.091 0.0963,-1.3131 0.19266,-2.6264 0.31244,-4.2612 z m -3.14401,-4.9865 c 1.18557,0.1314 2.38678,0.119 3.58367,0.1471 -9.4e-4,-0.4829 -0.004,-0.9659 -0.006,-1.449 -1.26558,-0.017 -2.53116,-0.033 -3.79674,-0.05 0.0704,0.4713 0.0972,1.3388 0.21758,1.3521 z m 74.7836,33.9197 c 2.84,4.434 5.1798,9.2791 5.6295,14.728 0.046,0.5589 -0.064,1.1305 -0.1453,2.39 -2.8256,-3.3757 -5.2858,-6.252 -7.6685,-9.191 -0.9848,-1.2146 -1.8177,-2.5544 -2.6946,-3.8537 -0.8371,-1.2404 -1.748,-2.0975 -3.4857,-1.8864 -0.656,0.08 -1.7182,-0.612 -2.093,-1.2477 -1.4379,-2.4394 -2.6761,-4.9969 -3.9792,-7.5151 -0.3766,-0.7278 -0.723,-1.4715 -1.0807,-2.2093 -0.861,-1.7753 -2.0885,-2.0873 -3.8425,-1.1666 -3.2821,1.7233 -3.7869,1.5826 -6.3022,-1.1836 -2.5069,-2.7567 -4.9617,-5.5641 -7.5604,-8.2316 -1.0205,-1.0476 -2.2597,-2.1188 -3.601,-2.547 -1.1849,-0.3779 -3.1169,-0.3567 -3.8632,0.3688 -0.7771,0.7554 -0.672,2.5647 -0.6767,3.9141 0,0.845 0.7028,1.6803 0.7513,2.5391 0.4727,8.3665 3.9968,15.7274 7.6267,23.0237 1.7747,3.5679 4.3347,6.5257 7.5946,8.9879 2.1578,1.6301 3.8327,3.9283 5.6141,6.0208 1.9489,2.2896 4.6698,2.8333 7.3511,3.3679 2.5548,0.5095 5.1823,0.6438 7.7536,1.0824 2.0904,0.3566 4.1454,0.92 6.3344,1.4185 -0.5427,2.2777 -2.1072,2.8757 -3.6712,3.2196 -7.791,1.7142 -15.5183,1.3483 -22.8903,-1.7219 -5.3532,-2.2295 -10.7393,-4.5963 -15.6357,-7.6611 -9.7658,-6.1124 -16.6427,-15.0584 -22.58113,-24.7768 -0.7174,-1.174 -0.59155,-1.8629 0.34779,-2.8706 2.64082,-2.8324 4.97744,-5.9016 6.14554,-9.9865 2.9679,1.3119 6.1874,3.1658 8.8789,-0.6937 -0.2168,-0.1505 -0.4041,-0.3118 -0.4267,-0.2916 -2.4552,2.2231 -4.4178,0.7429 -6.3726,-0.8302 -0.4073,-0.328 -0.7935,-0.7086 -1.2522,-0.9407 -1.7042,-0.862 -3.00419,-0.1226 -3.12155,1.7658 -0.089,1.4331 -0.50895,2.4022 -1.79451,3.4567 -2.21441,1.8172 -3.87657,4.2979 -5.82206,6.4533 -2.17168,2.4063 -2.9139,2.5902 -4.58827,-0.079 -2.40327,-3.8309 -4.62481,-7.8605 -6.27749,-12.0593 -3.49797,-8.8882 -6.41674,-18.0037 -9.9005,-26.8978 -1.59824,-4.0797 -3.93945,-7.8728 -5.99776,-11.7678 -2.52667,-4.7807 -1.92034,-11.6516 1.54378,-16.1587 0.22872,0.1435 0.56257,0.2346 0.68826,0.4482 3.19994,5.4389 8.48199,7.3593 14.25837,7.9416 6.35836,0.641 12.66206,-0.077 18.69943,-2.385 1.0378,-0.3968 2.0363,-0.8962 2.6526,-1.1705 1.1639,0.6346 2.0187,1.4735 2.9243,1.5327 5.1334,0.3359 8.8983,3.1977 12.5104,6.4223 7.8308,6.991 12.7402,15.7916 15.5479,25.7667 0.9698,3.4448 2.726,6.0489 5.4982,8.152 0.9438,0.7159 1.895,1.5224 2.5662,2.4814 5.5333,7.904 11.2067,15.7221 16.4077,23.8417 z m 70.6839,-60.1277 c 4.3765,-0.064 8.1898,-1.335 11.8417,-3.4241 1.0645,-0.6092 1.7674,-2.0304 2.8583,-2.3834 4.9522,-1.6011 7.2106,-6.5297 11.4899,-8.9697 -3.9792,0.4231 -7.0186,2.4544 -10.0532,4.799 -3.0582,2.3629 -6.3916,4.6278 -9.9658,5.9845 -2.7429,1.0413 -6.1348,1.158 -9.0842,0.7019 -4.83,-0.7464 -8.9505,1.299 -13.3026,2.4158 -1.2969,0.3329 -2.2905,0.7206 -3.5507,-0.017 -0.5634,-0.3269 -1.4152,-0.1559 -2.5632,-0.2445 1.2153,2.0452 2.403,2.9994 4.0715,2.4255 5.9781,-2.0568 12.171,-1.208 18.2583,-1.2953 z m -19.5437,9.5393 c -2.9569,-0.9013 -5.8717,-2.0008 -8.8847,-2.6336 -1.954,-0.4107 -4.0518,-0.1418 -6.0848,-0.1759 0.026,0.052 0.052,0.105 0.081,0.1576 4.9592,1.0468 9.9205,2.0932 14.8819,3.1396 0,-0.1629 0,-0.3249 0,-0.4874 z m -14.4868,-11.003 c -1.2525,0.1795 -1.9796,0.2816 -2.7041,0.3875 -0.8424,0.1226 -1.7524,0.5189 -2.5139,0.3249 -2.6621,-0.6812 -5.2383,-1.7317 -7.9185,-2.3157 -1.9212,-0.419 -3.9561,-0.3278 -5.9404,-0.4451 -3.2716,-0.1929 -6.5469,-0.3439 -9.8147,-0.583 -0.4624,-0.033 -0.9024,-0.4524 -1.3419,-0.711 -1.9104,-1.1243 -3.8333,-2.2287 -5.7183,-3.395 -0.9907,-0.6132 -2.0013,-1.2428 -2.8483,-2.031 -2.8105,-2.6158 -5.9953,-4.4266 -9.9112,-4.906 1.6113,1.6415 3.8127,2.7163 5.096,4.4649 2.5412,3.4624 6.5887,4.6357 9.7585,7.1156 5.0906,3.9832 11.5415,3.7607 17.5357,3.2913 4.0626,-0.3181 7.7726,0.5935 11.602,1.16 1.9691,0.2919 3.3292,0.049 4.7191,-2.3577 z m -47.7993,-28.8093 c -0.168,-2.6062 -2.128,-3.5315 -4.6679,-2.3532 0.3704,2.493 0.6345,2.6312 4.6679,2.3532 z m -4.2881,-39.7294 c 1.8926,-0.023 3.358,-0.8754 3.8109,-2.8109 0.5993,-2.5605 2.3291,-3.341 4.7144,-3.5992 1.2645,-0.1366 2.8169,-0.4916 3.6261,-1.3358 1.5304,-1.5957 2.6437,-1.3592 4.4161,-0.4183 1.5789,0.8381 3.503,2.4197 5.2153,0.4121 1.2222,0.633 2.3553,1.2199 3.7534,1.9451 -1.2482,-4.5202 -5.3183,-6.6822 -8.0212,-4.5853 -1.4976,-0.6154 -3.0193,-1.2279 -4.5304,-1.8651 -1.7537,-0.7388 -3.309,-0.9229 -4.9639,0.5247 -0.9363,0.8191 -2.4009,1.343 -3.6631,1.4212 -3.4612,0.2141 -5.1027,2.1758 -6.0543,5.2376 -0.2351,0.7565 -1.125,1.3968 -1.8484,1.8952 -1.274,0.8774 -3.4533,1.332 -3.8325,2.447 -1.0594,3.1154 -5.0067,4.822 -4.198,8.7609 0.044,0.2101 -0.2102,0.6098 -0.429,0.7252 -2.9136,1.5348 -2.4694,4.1549 -2.1058,6.6755 0.2123,1.4722 0.5188,2.7515 -0.8004,4.0123 -0.5388,0.5149 -0.6046,1.8523 -0.4274,2.7222 0.4099,2.0141 1.0993,3.9711 1.7102,6.0717 -1.6486,-0.2488 -1.8744,0.9412 -1.4321,2.1943 0.5778,1.6389 1.3314,3.2476 2.2352,4.7321 1.3925,2.2872 3.6737,4.2747 4.3168,6.7209 0.9703,3.6913 3.5413,5.6478 6.1237,7.7911 0.6207,0.5152 1.4838,0.7381 2.2355,1.0954 0.1349,-0.1365 0.2705,-0.2745 0.4057,-0.4115 -1.4484,-3.0194 -2.7184,-6.1428 -4.3955,-9.0291 -1.6907,-2.9097 -3.7858,-5.5838 -5.896,-8.6395 2.4751,-0.1086 2.4227,-1.2848 1.81,-2.7407 -0.4048,-0.9625 -0.947,-1.9026 -1.1469,-2.9084 -0.4199,-2.1118 -2.5015,-4.2285 0.084,-6.4401 0.4831,-0.4134 0.1611,-1.8458 0.096,-2.8 -0.077,-1.1133 -0.4513,-2.2304 -0.3736,-3.3225 0.061,-0.8613 0.4044,-2.1917 0.9855,-2.4307 1.4411,-0.5926 1.6624,-1.5366 1.5888,-2.8117 -0.112,-1.9432 0.5151,-3.6037 1.2179,-5.4502 1.1473,-3.0136 3.0106,-3.7532 5.7734,-3.7855 z m 10.0939,-17.5409 c 0.064,0.2222 0.1242,0.4425 0.1879,0.6646 1.2981,-0.1859 2.6694,-0.1698 3.8791,-0.6017 2.2377,-0.8011 4.3068,-2.1244 6.5779,-2.7692 5.3838,-1.5328 10.1115,-3.886 13.1921,-8.8152 0.3873,-0.6202 0.9231,-1.3702 1.5506,-1.5786 2.8131,-0.9295 4.0631,-3.3574 5.6396,-5.5006 0.3495,-0.4782 0.7812,-0.9018 1.1989,-1.3253 3.1127,-3.1753 6.1442,-6.4672 10.7762,-7.4542 0.119,-0.028 0.2033,-0.208 0.3043,-0.317 0.032,-0.2959 0.065,-0.5919 0.096,-0.888 -1.6657,-0.2075 -3.3621,-0.7283 -4.9913,-0.5674 -5.7152,0.5653 -9.0014,4.6758 -12.2375,8.801 -0.9465,1.2068 -1.9592,2.3728 -3.0203,3.4815 -0.8652,0.9057 -1.977,1.5915 -2.7485,2.5602 -2.9448,3.6877 -6.8181,6.1135 -10.8401,8.4119 -3.2512,1.8564 -6.3811,3.9246 -9.5648,5.898 z m 42.691,-21.0912 c -1.4946,-0.2762 -2.7168,-0.5032 -4.4389,-0.8234 1.3215,2.4497 2.6214,2.6434 4.4389,0.8234 z m 2.6608,92.0713 c 0.096,-2.5068 0.2026,-5.0128 0.2878,-7.5199 0.193,-5.7949 0.168,-11.608 0.6564,-17.3784 0.2196,-2.6207 1.6013,-5.14 -0.086,-7.7456 -0.2404,-0.3727 -0.1033,-1.0246 -0.062,-1.5411 0.2018,-2.5767 0.6483,-5.1559 0.5998,-7.7265 -0.077,-4.266 -0.4655,-8.5265 -0.7243,-12.7892 -0.2467,0 -0.4935,0 -0.7383,0 -3.8678,18.1522 -4.9886,36.3586 0.066,54.6921 z m 6.9819,-42.6482 c -0.5049,-3.8907 -1.0199,-7.7952 -1.1924,-11.7088 -0.1103,-2.509 0.4092,-5.0431 0.6043,-7.5695 0.048,-0.6045 -0.074,-1.2219 -0.1156,-1.8332 -0.2249,-0.04 -0.4516,-0.079 -0.6782,-0.119 -0.1734,0.4375 -0.461,0.865 -0.5031,1.3151 -0.2075,2.2975 -0.354,4.601 -0.5206,6.9028 -0.5217,7.178 -1.7654,14.3378 -0.4476,21.5605 0.1419,0.7743 0.1823,1.7772 -0.1912,2.3972 -1.2744,2.1182 -0.7491,4.1573 -0.1418,6.272 0.3081,1.0699 0.6222,2.1827 0.6451,3.2822 0.1066,5.2061 0.075,10.4154 0.1752,15.6222 0.046,2.3195 0.2901,4.6355 0.445,6.9526 0.2591,0 0.5201,0 0.7812,0 0.084,-0.7622 0.1541,-1.5268 0.2554,-2.2863 0.2991,-2.2196 0.44,-4.4779 0.9531,-6.6478 1.5264,-6.4494 1.7367,-12.9518 1.2338,-19.5224 -0.1138,-1.4882 0.1138,-3.0005 0.1366,-4.5021 0.017,-0.8915 0.04,-1.8 -0.105,-2.6738 -0.4083,-2.4856 -1.0096,-4.9427 -1.3347,-7.4375 z m -7.7648,-55.5506 c -0.4179,3.0885 -0.733,6.1926 -1.0792,9.2912 0.212,0.033 0.4239,0.068 0.6357,0.1015 2.2978,-2.564 3.584,-5.4414 2.5933,-8.9353 -0.1488,-0.5252 -0.734,-0.9279 -1.1153,-1.3877 -0.3598,0.3087 -0.986,0.5814 -1.0345,0.9299 z m 5.6104,12.8752 c 0.6623,-0.6234 0.8596,-0.7199 0.8612,-0.8209 0.072,-3.6197 0.1593,-7.2399 0.1295,-10.8592 0,-0.3775 -0.7085,-0.7508 -1.0876,-1.1246 -0.3412,0.3826 -0.9982,0.7904 -0.9715,1.1461 0.28,3.7505 0.6694,7.4933 1.0688,11.6586 z m 1.9953,-12.2118 c 1.1533,0.4476 2.3269,0.8523 3.456,1.3559 1.0801,0.4825 2.323,0.8532 3.1318,1.6457 2.3715,2.3273 4.5236,4.8791 6.8359,7.2733 3.2704,3.3844 6.5903,6.7217 9.9327,10.0345 0.5061,0.5034 1.2229,0.8348 1.894,1.1281 4.2041,1.8356 8.414,3.6559 12.6409,5.44 1.0932,0.4615 2.2268,0.8701 3.382,1.1189 0.5972,0.1278 1.2816,-0.1453 2.2306,-0.2817 -2.9567,-2.0519 -5.3743,-4.0993 -8.1095,-5.5442 -4.3616,-2.3031 -8.6031,-4.611 -11.8554,-8.4866 -1.5585,-1.859 -3.7094,-3.2091 -5.3718,-4.9928 -1.9477,-2.0927 -3.6522,-4.409 -5.4703,-6.6207 -2.1961,-2.6761 -5.2829,-3.5585 -8.4988,-3.8556 -1.3543,-0.1242 -2.779,0.5367 -4.1729,0.8388 0,0.3166 -0.017,0.6314 -0.025,0.9464 z m 39.3324,32.9686 c -0.8859,0.3959 -1.7786,0.7998 -2.7055,1.0781 -0.42,0.1261 -0.9286,-0.042 -1.3983,-0.08 -0.9579,-0.079 -2.21,-0.5837 -2.8207,-0.161 -1.887,1.3069 -3.9465,1.3252 -6.0615,1.6136 -4.2758,0.583 -4.846,1.4849 -3.9484,5.5493 1.9192,-1.3056 2.5495,-4.5527 5.6906,-3.8102 -0.091,0.515 -0.1698,0.9711 -0.3458,1.9629 1.5438,-0.8111 2.6841,-1.4097 3.3121,-1.7397 1.3287,0.1418 2.3092,0.4632 3.1903,0.2853 1.1446,-0.2311 2.2843,-0.7345 3.2879,-1.3475 1.2253,-0.748 2.0288,-0.5549 3.1554,0.3222 1.1039,0.8603 2.5579,1.5674 3.9291,1.726 2.4851,0.2873 4.2633,1.0835 4.9002,3.7067 0.4509,1.8578 1.8584,2.5623 3.6613,2.7043 4.2135,0.3305 7.1709,3.5784 7.0356,7.686 -0.056,1.7518 -0.5518,3.612 1.888,4.4124 0.4346,0.1435 0.677,1.4424 0.6782,2.2079 0,1.1812 -0.3577,2.3581 -0.4271,3.5447 -0.052,0.9473 -0.2773,2.3995 0.2207,2.7745 2.0599,1.5575 0.818,3.2571 0.4486,4.846 -0.334,1.4423 -1.0082,2.8105 -1.5821,4.1915 -0.6246,1.5053 -0.6039,2.6746 1.2756,2.8586 -3.3781,5.8123 -6.7141,11.5551 -10.2693,17.6733 2.8259,-0.1524 8.2359,-4.6317 8.872,-6.4499 0.6656,-1.9051 1.5165,-3.7667 2.4822,-5.5412 1.4098,-2.5907 3.1238,-5.021 4.4431,-7.6527 0.5675,-1.1319 0.4404,-2.5806 -1.6455,-2.5226 0.4007,-0.8781 0.8421,-1.516 0.9811,-2.214 0.3829,-1.9438 1.5693,-4.551 0.7525,-5.735 -1.5805,-2.2932 -0.8841,-4.3066 -0.7885,-6.5014 0.032,-0.7346 0.112,-1.6557 -0.2609,-2.1869 -1.5813,-2.2426 -2.5044,-4.7169 -3.2948,-7.3166 -0.3129,-1.033 -1.6893,-1.7191 -2.0906,-2.7535 -0.896,-2.3126 -2.5604,-3.5075 -4.7469,-4.4186 -0.9363,-0.3903 -1.9181,-1.3803 -2.2705,-2.3252 -1.0202,-2.731 -2.4636,-4.6002 -5.6633,-4.7546 -1.198,-0.058 -2.651,-0.4785 -3.4835,-1.2667 -2.1464,-2.0344 -4.2062,-1.3455 -6.4013,-0.3655 z m 10.5309,32.7919 c 1.3674,0.3553 2.7592,0.3772 3.8097,-1.9847 -1.6642,0.112 -2.9104,0.1953 -4.1566,0.2786 0.1086,0.5938 0.1,1.6419 0.3469,1.7061 z m -3.2607,-20.6482 c -0.9412,-2.0806 -2.0844,-2.3881 -4.3335,-0.9283 1.3539,0.2896 2.7058,0.5796 4.3335,0.9283 z m 1.4231,4.2669 c -1.8905,-0.1349 -3.3202,-0.2385 -4.6563,-0.3345 1.1486,1.832 2.3781,2.0533 4.6563,0.3345 z m -31.3251,74.234 c -2.5835,2.4496 -5.1197,5.0742 -8.8873,6.0485 -2.2733,0.588 -4.3272,0.1681 -5.7111,-1.5944 -2.8563,-3.6369 -6.719,-3.2857 -10.4344,-2.6771 -4.6069,0.7548 -9.0896,2.2506 -13.6888,3.0587 -1.4156,0.2487 -3.1164,-0.541 -4.5454,-1.1724 -0.9012,-0.398 -1.6219,-1.3198 -2.2742,-2.1279 -0.5871,-0.7309 -1.5565,-1.872 -1.3331,-2.403 0.6291,-1.501 1.6386,-2.9017 3.7994,-2.366 2.3943,0.5941 4.8236,1.0686 7.2589,1.4695 1.1319,0.1859 2.3118,0.075 3.5735,0.1 -3.1289,-0.8958 -6.0502,-1.7741 -8.9945,-2.5596 -1.9141,-0.5101 -3.7687,-1.6158 -5.8644,-0.2363 -0.7272,0.4787 -1.8901,0.3316 -2.8586,0.4009 -2.9594,0.2115 -6.4236,1.9033 -7.6525,-3.1238 -0.1795,0.1366 -0.3591,0.2738 -0.5386,0.4109 -0.2424,0.7348 -0.4848,1.4697 -0.7786,2.362 -3.7371,0.1733 -7.008,-1.3331 -10.0521,-3.4416 -0.3395,-0.235 -0.3838,-0.9876 -0.4451,-1.5139 -0.1173,-1.0068 -0.1488,-2.0239 -0.5165,-3.2298 -1.593,2.9865 -3.6905,2.0166 -5.576,1.0538 -2.5913,-1.323 -5.0729,-2.8644 -7.5779,-4.352 -1.143,-0.679 -1.3819,-1.4862 -0.211,-2.4478 1.4409,-1.1832 1.5406,-2.4368 0.058,-3.6955 -2.7655,2.1589 -2.7678,2.1619 -5.5401,-0.026 -0.8208,-0.6479 -1.6473,-1.2914 -2.4297,-1.9838 -0.9472,-0.838 -1.8506,-1.7262 -2.7858,-2.6047 0.7005,-2.1647 5.1873,-2.8342 2.3137,-6.4183 -1.0159,0.6782 -1.9769,1.32 -3.4165,2.2807 -1.2811,-2.7129 -2.591,-5.3329 -3.7208,-8.0282 -0.1914,-0.4572 0.2469,-1.3586 0.648,-1.8461 0.8309,-1.0099 1.8323,-1.8799 2.7637,-2.8075 -0.086,-0.2048 -0.1698,-0.4098 -0.2547,-0.615 -1.1474,0.2421 -2.2949,0.4843 -3.9973,0.8435 -0.8473,-2.8951 -1.7678,-5.8986 -2.5975,-8.9268 -0.5123,-1.8711 0.4451,-2.6022 2.2354,-2.6327 0.6274,-0.017 1.2514,-0.2345 1.934,-0.8831 -0.9998,-0.1933 -2,-0.3867 -2.8987,-0.5603 -0.4223,-2.9488 -0.9938,-5.8511 -1.2128,-8.7795 -0.2125,-2.8396 1.0258,-5.1447 2.9056,-6.4079 0.4889,-2.0828 0.6863,-3.797 1.301,-5.3453 0.9761,-2.4579 1.29,-5.5364 4.7734,-6.1114 0.2984,-0.049 0.5136,-0.6045 0.7673,-0.9246 -0.328,-0.2442 -0.6254,-0.5642 -0.9922,-0.7125 -0.3953,-0.1611 -0.8559,-0.1594 -1.6363,-0.2854 2.649,-3.7364 4.6046,-7.7921 9.7587,-8.1544 0.3543,-0.024 0.7873,-0.1313 1.0303,-0.3605 5.0549,-4.788 11.2416,-7.8145 17.3062,-10.9842 6.5231,-3.4084 12.6746,-7.2699 17.7564,-12.6664 3.0543,-3.2452 6.0152,-6.5815 9.1756,-9.7191 7.0505,-7.001 15.3975,-9.736 25.1937,-7.1936 3.8177,0.9908 7.6437,1.9822 11.3994,3.1848 4.0042,1.2816 6.8081,4.0896 9.1133,7.556 2.8451,4.2754 5.6764,8.593 8.9106,12.5673 4.4481,5.4621 10.3109,9.1967 16.6088,12.2508 4.0994,1.9885 8.1989,3.9772 12.2983,5.9661 -0.1085,0.2816 -0.2187,0.563 -0.3272,0.8444 -0.8113,0.1155 -1.6248,0.2327 -2.4361,0.3489 -0.052,0.1698 -0.1016,0.3383 -0.1541,0.5074 0.5053,0.3141 0.9732,0.7335 1.5206,0.92 1.1302,0.3843 2.3093,0.6175 3.4517,0.9605 3.3701,1.009 4.5297,2.72 4.5952,6.4187 0,0.4578 0.6481,1.06 1.1424,1.3245 1.5349,0.8244 2.4959,1.8788 2.8005,3.7253 0.373,2.2686 1.139,4.4728 1.7699,6.8432 -0.5028,0.2787 -1.0484,0.5811 -1.9889,1.1014 0.8333,0.5407 1.3645,1.1345 1.9732,1.2313 1.7625,0.2798 2.324,1.3661 2.3678,2.9487 0.017,0.4473 0.055,0.8937 0.06,1.3411 0.026,2.4575 0.042,4.9156 0.066,7.605 -0.9612,0.1383 -1.8159,0.2602 -2.6704,0.3825 -0.03,0.1611 -0.058,0.3221 -0.088,0.4833 0.6035,0.3399 1.209,0.6798 1.8164,1.0211 0.1191,3.9368 -1.1384,8.2719 -3.9707,13.6168 -0.8854,-0.1349 -1.7975,-0.2723 -3.1206,-0.4728 0.436,0.6999 0.5756,1.2389 0.8626,1.336 2.3884,0.8047 2.0583,2.5553 1.5977,4.3622 -0.6944,2.7302 -1.7029,5.2738 -4.1773,6.8429 -1.5396,-0.5623 -3.022,-1.1037 -4.5044,-1.645 -0.1784,0.256 -0.3568,0.5122 -0.5371,0.769 0.6035,0.691 1.131,1.4697 1.8219,2.0555 1.3057,1.1043 1.9876,2.0199 0.3807,3.5566 -2.2555,2.1574 -4.289,4.5454 -6.461,6.8799 -1.1751,-1.0483 -2.168,-1.9325 -3.1609,-2.8166 -0.2249,0.1541 -0.452,0.3091 -0.6772,0.4635 0.5219,1.3148 1.174,2.5977 1.5076,3.9588 0.1628,0.662 -0.017,1.8441 -0.4699,2.1504 -2.7129,1.8256 -5.5493,3.4641 -7.9895,4.9492 -1.2681,-0.7986 -2.1443,-1.4726 -3.1226,-1.9174 -0.5201,-0.2358 -1.2222,-0.074 -1.8418,-0.091 0.017,0.5607 -0.064,1.148 0.075,1.6771 0.2635,0.998 0.6529,1.9629 1.2104,3.5819 -3.159,0.8866 -6.1761,1.8099 -9.2429,2.5129 -0.473,0.1085 -1.2114,-0.7539 -1.7652,-1.2382 -0.7532,-0.656 -1.4458,-1.3807 -2.1643,-2.0759 -0.1829,0.1401 -0.3658,0.281 -0.5506,0.4221 0.2717,1.28 0.5455,2.5594 0.9346,4.3922 -4.6537,-0.5531 -8.9999,-0.9966 -13.3227,-1.6118 -2.4764,-0.3526 -4.482,0.3642 -6.2803,2.1361 2.5762,-0.5223 5.1737,-1.9331 7.6094,0.5627 z m 69.8904,-18.05 c 0,0.017 0,0.024 -0.017,0.037 0,0 -0.017,0 -0.022,-0.018 z m -0.017,-0.03 c 0,0.017 0.017,0.02 0.017,0.03 0,0 -0.03,0.026 -0.022,0.017 0,-0.017 0,-0.03 0.017,-0.045 z m 0,0 c -3.3369,-8.9425 -6.6736,-17.8853 -10.173,-27.2606 -0.8668,0.8234 -1.1658,1.1072 -1.0985,1.0427 1.0012,-5.3298 2.0804,-11.0705 3.1755,-16.9093 0.1103,-0.017 0.4562,-0.182 0.6819,-0.08 5.7628,2.616 12.0494,1.8577 18.0771,2.7018 4.8772,0.6829 9.9083,1.094 13.5496,4.5282 2.86,2.6951 5.4149,6.0941 7.0101,9.669 3.2218,7.228 3.2316,14.8176 -0.1768,22.0882 -2.0862,4.4492 -6.3205,6.4157 -10.8468,6.8218 -6.2485,0.5611 -12.2892,-1.0478 -18.0166,-3.5847 -1.3328,-0.59 -1.9206,-0.3592 -2.1825,0.9834 z m 14.1543,51.4414 c -1.289,-0.4817 -2.2594,-0.8453 -3.6355,-1.3599 0.9319,2.6199 1.5947,2.8703 3.6355,1.3599 z m -5.0703,2.3885 c -0.4041,-0.028 -0.8716,0.8469 -1.3103,1.3067 1.1205,1.017 2.2429,2.0338 3.5707,3.2361 0.2502,-2.7293 -0.636,-4.427 -2.2604,-4.5428 z m -6.695,-46.6346 c 0.2406,0.6129 0.3866,1.6744 0.7387,1.7481 0.7976,0.1664 1.6963,-0.1539 2.5529,-0.2774 l -2.6368,-2.0346 c -0.2183,0.1879 -0.4364,0.3759 -0.6548,0.5639 z m 34.4248,-9.7753 c 2.6139,6.1827 3.7552,12.0468 -0.5284,17.9366 -5.7357,7.8882 -8.5833,17.1798 -12.3687,26.0284 -2.635,6.1594 -5.826,12.0994 -9.0513,17.9824 -2.6851,4.898 -3.8144,4.913 -7.4541,0.8165 -1.8161,-2.0439 -3.6337,-4.0986 -5.2748,-6.28 -0.4619,-0.6158 -0.3667,-1.6916 -0.4253,-2.5637 -0.1139,-1.6662 -1.2737,-2.592 -2.7536,-1.8536 -1.6375,0.8169 -3.109,1.9669 -4.9234,3.1481 2.1838,1.7342 3.6872,-0.2164 4.8034,-0.3231 2.2797,3.9332 4.4473,7.6728 6.8119,11.7504 -5.4922,7.3154 -10.9607,15.1054 -19.163,20.7443 -8.0743,5.5506 -16.8081,9.0649 -26.2442,10.9311 -6.2366,1.2334 -12.5227,0.8023 -18.4533,-1.8481 -0.7753,-0.3473 -1.3149,-1.224 -1.964,-1.8557 0.6647,-0.4093 1.2815,-0.9724 2.0062,-1.2038 5.4116,-1.7316 11.0116,-3.0027 16.2352,-5.1776 7.8828,-3.2821 14.5805,-8.045 18.8904,-15.9544 3.32,-6.0918 5.6888,-12.4543 7.8034,-18.9781 0.2048,-0.6325 0.4383,-1.3591 0.3161,-1.974 -0.2897,-1.4479 -0.3466,-3.43 -1.2942,-4.1523 -1.7103,-1.3052 -3.8175,-0.3722 -5.3327,0.9495 -2.9227,2.55 -5.696,5.2747 -8.5227,7.9341 -0.4338,0.4084 -0.8816,0.8178 -1.2379,1.2916 -1.45,1.9302 -3.0742,1.9566 -5.0672,0.7698 -2.821,-1.6794 -3.2199,-1.5167 -4.8615,1.3337 -1.4905,2.5875 -2.9019,5.222 -4.4431,7.7782 -0.7099,1.176 -1.6218,2.0647 -3.3158,1.6732 -0.6028,-0.1384 -1.6176,0.3675 -2.0682,0.8975 -2.321,2.7245 -4.4401,5.6236 -6.7958,8.3161 -1.2489,1.4263 -2.8356,2.557 -4.2683,3.8208 -0.228,-0.049 -0.456,-0.096 -0.6861,-0.1454 0.2123,-1.7464 0.03,-3.666 0.705,-5.2102 3.0244,-6.9209 6.4277,-13.651 11.6511,-19.2646 5.2375,-5.6281 10.4474,-11.2795 15.6733,-16.9183 0.2544,-0.273 0.6194,-0.4741 0.7877,-0.7868 1.8753,-3.4801 4.3067,-6.7939 5.4578,-10.5028 2.7933,-8.9841 9.5096,-14.4743 16.3994,-19.9315 3.5975,-2.8497 7.6407,-4.8595 12.0398,-6.1682 0.064,-0.02 0.077,-0.2237 0.1067,-0.3641 3.2316,1.2616 6.391,2.7632 9.7086,3.7272 5.4231,1.5757 11.0054,2.1037 16.567,0.7327 3.9896,-0.983 7.6227,-2.684 9.8229,-6.4771 0.1296,-0.2228 0.4023,-0.3617 0.7119,-0.6292 z m 16.7285,-21.7727 c -1.6589,-1.535 -3.4912,-2.9351 -4.9603,-4.6464 -4.2518,-4.9463 -9.4515,-8.5559 -15.2023,-11.5079 -3.013,-1.5454 -2.8375,-1.6257 -2.0604,-4.7456 0.6274,-2.5101 0.9254,-5.1023 1.4362,-8.0471 0.6763,0.3582 1.4483,0.6252 2.0495,1.1052 6.8364,5.4523 13.5712,11.0087 19.2382,17.7412 4.0758,4.8405 4.1218,5.2462 -0.5009,10.1006 z m 5.198,-1.1601 c 6.9464,6.4307 10.5411,14.6477 13.3366,23.3753 -4.3019,-7.4014 -9.204,-14.3214 -15.4984,-20.3396 0.7663,-1.0761 1.4406,-2.0225 2.1618,-3.0357 z m 21.2861,-21.5814 c 0.1663,0.8438 -0.074,1.7686 -0.1436,2.6591 -0.8216,-0.082 -1.8061,0.1032 -2.4366,-0.2865 -5.4508,-3.3548 -10.8163,-6.8454 -16.2538,-10.2198 -1.5704,-0.9734 -3.2907,-1.7024 -5.1571,-2.6526 0.7004,-2.3084 1.3254,-4.3709 2.1684,-7.1567 4.5841,3.267 8.9458,6.2033 13.1058,9.4011 2.6492,2.0372 5.0109,4.4514 7.4765,6.7217 0.4883,0.4487 1.1284,0.9605 1.2405,1.5337"
       style="fill:#000000;fill-opacity:1;fill-rule:nonzero;stroke:none;stroke-width:0.32335263"
       id="path4247"
       inkscape:connector-curvature="0" /></g></svg>